<mxfile host="app.diagrams.net" modified="2023-11-21T16:51:51.041Z" agent="Mozilla/5.0 (Windows NT 10.0; Win64; x64) AppleWebKit/537.36 (KHTML, like Gecko) Chrome/119.0.0.0 Safari/537.36" version="22.1.3" etag="GKF-Bm-xhNYwlfbK9bWs" type="github">
  <diagram name="Page-1" id="0fT6ugG8-ew-LN8uWus7">
    <mxGraphModel>
      <root>
        <mxCell id="0" />
        <mxCell id="1" parent="0" />
      </root>
    </mxGraphModel>
  </diagram>
</mxfile>
